# xmcd CD database file
#
# Track frame offsets:
#	150
#	16317
#	32922
#	52567
#	78737
#	102347
#	123395
#	158945
#	177677
#	196865
#	214547
#	233392
#	255075
#	274762
#	293382
#
# Disc length: 4168 seconds
#
# Revision: 8
# Processed by: cddbd v1.5.2PL0 Copyright (c) Steve Scherf et al.
# Submitted via: CDex 1.70beta2
#
DISCID=bb10460f
DTITLE=坂本真綾 - ハチポチ
DYEAR=1999
DGENRE=JPop
TTITLE0=約束はいらない
TTITLE1=ともだち
TTITLE2=ボクらの歴史
TTITLE3=Gift
TTITLE4=君に会いにいこう
TTITLE5=光の中へ
TTITLE6=Light of love
TTITLE7=奇跡の海
TTITLE8=Active Heart
TTITLE9=パイロット
TTITLE10=プラチナ
TTITLE11=24 twenty-four
TTITLE12=恋人について
TTITLE13=ポケットを空にして
TTITLE14=CALL YOUR NAME
EXTD=YEAR: 1999
EXTT0=
EXTT1=
EXTT2=
EXTT3=
EXTT4=
EXTT5=
EXTT6=
EXTT7=
EXTT8=
EXTT9=
EXTT10=
EXTT11=
EXTT12=
EXTT13=
EXTT14=
PLAYORDER=
